:SAMPLES-PER-SECOND 30
:FULLY-SPECIFIED
:DEGREES
850
root  76.4646 37.8319 2.12149 156.466 66.7061 158.683
RightUpLeg  -17.2114 6.05329 -11.5308
RightLeg  61.6026 2.30349 4.10677
RightFoot  -3.98144 -0.596019 8.95801
RightToes  -4.65663e-010 0 -3.6325e-017
Spine  5.84968 1.16477 -3.23259
Spine1  4.60737 3.00944 -10.9513
HEad  -21.3966 -3.83941 -2.36754
LeftShoulder1  -0.582542 5.00305 -32.7059
LeftArm  7.22021 9.86176 -39.058
LeftForeArm  27.4636 -44.9861 -9.27221
LeftHand  -0.0349873 4.83934 2.32166
RightShoulder  -1.26951 -6.99131 29.9065
RightArm  21.0194 -11.5092 43.767
RightForeArm  22.2714 11.7114 7.49408
RightHand  0.0526491 1.16634 0.91424
LeftUpLeg  -9.8929 -0.947506 -14.9681
LeftLeg  18.6348 8.68488 2.81613
LeftFoot  -3.55495 -0.669701 10.1192
LeftToes  8.74931e-010 -1.05764e-010 1.2659e-011
851
root  77.1998 37.8913 2.20464 161.635 61.8327 162.981
RightUpLeg  -19.4737 11.5803 -12.7299
RightLeg  56.1438 3.18579 4.68117
RightFoot  -7.01458 -0.425821 9.84992
RightToes  -4.65663e-010 0 -3.6325e-017
Spine  5.14373 0.861341 -2.71621
Spine1  4.96596 2.91893 -11.1368
HEad  -21.3406 -5.44821 -1.56686
LeftShoulder1  -0.586636 5.01748 -32.6072
LeftArm  8.1343 9.36381 -39.433
LeftForeArm  27.8386 -47.1557 -10.0538
LeftHand  -0.0272882 5.40027 2.02011
RightShoulder  -1.2546 -6.96798 29.7214
RightArm  24.9946 -11.8033 43.7968
RightForeArm  17.8426 14.3489 7.00914
RightHand  -0.0159826 2.33237 -0.415602
LeftUpLeg  -9.5777 -2.64716 -14.7941
LeftLeg  18.8772 5.02512 2.22751
LeftFoot  -4.33608 -0.547382 9.35162
LeftToes  8.74931e-010 -1.05764e-010 1.2659e-011
852
root  77.945 37.9087 2.36481 165.897 55.5965 166.212
RightUpLeg  -20.8711 17.6724 -14.8529
RightLeg  49.326 5.29908 6.21617
RightFoot  -9.26044 -0.212086 8.06841
RightToes  -4.65663e-010 0 -3.6325e-017
Spine  4.61917 0.409823 -3.15325
Spine1  4.99774 2.42312 -10.5644
HEad  -22.6375 -5.84036 -1.38801
LeftShoulder1  -0.577825 4.99997 -32.4632
LeftArm  9.09148 8.72363 -39.9637
LeftForeArm  28.2178 -48.1528 -10.4207
LeftHand  -0.02407 5.88785 1.54814
RightShoulder  -1.24713 -6.91736 30.0273
RightArm  30.1206 -12.3038 43.153
RightForeArm  14.5976 17.9613 5.72357
RightHand  0.0745397 1.84242 1.05685
LeftUpLeg  -9.56234 -4.95358 -14.4989
LeftLeg  19.4321 0.71941 1.2411
LeftFoot  -5.0404 -0.473632 9.14017
LeftToes  8.74931e-010 -1.05764e-010 1.2659e-011
853
root  78.7472 37.958 2.53085 169.223 48.3629 168.349
RightUpLeg  -21.7408 25.5895 -18.3432
RightLeg  41.7729 9.05991 8.29407
RightFoot  -11.3404 -0.0719586 6.59046
RightToes  -4.65663e-010 0 -3.6325e-017
Spine  3.30534 -0.0857148 -4.14533
Spine1  6.42567 1.82626 -9.02554
HEad  -20.5717 -9.75933 -0.686361
LeftShoulder1  -0.504566 4.82158 -32.1502
LeftArm  8.55551 7.50503 -41.8982
LeftForeArm  28.967 -47.4005 -10.0719
LeftHand  -0.0059307 7.19669 1.85929
RightShoulder  -1.31558 -7.05477 30.557
RightArm  33.2941 -12.4854 42.5514
RightForeArm  10.4479 21.1507 4.75479
RightHand  0.00970335 2.53667 -0.0812094
LeftUpLeg  -9.54339 -8.01336 -14.029
LeftLeg  19.8233 -3.7013 -0.237865
LeftFoot  -5.25824 -0.453836 9.11941
LeftToes  8.74931e-010 -1.05764e-010 1.2659e-011
854
root  79.6203 37.9082 2.73329 171.832 40.0693 169.589
RightUpLeg  -22.0951 34.3932 -22.4545
RightLeg  34.3588 14.0995 9.91446
RightFoot  -12.8637 0.00117135 6.47874
RightToes  -4.65663e-010 0 -3.6325e-017
Spine  2.68295 -0.656776 -5.70451
Spine1  6.72572 0.891263 -7.11001
HEad  -15.6049 -12.4257 -1.20534
LeftShoulder1  -0.488097 4.77106 -32.378
LeftArm  7.54467 5.74942 -44.0922
LeftForeArm  30.5233 -44.3669 -8.86275
LeftHand  0.023769 7.78512 2.03394
RightShoulder  -1.23482 -6.86889 30.1917
RightArm  32.5914 -13.881 42.5119
RightForeArm  10.0794 23.9764 4.54223
RightHand  0.0703435 3.09533 0.759525
LeftUpLeg  -10.21 -11.8422 -13.3478
LeftLeg  21.1432 -8.0051 -2.37318
LeftFoot  -5.86933 -0.399597 9.0774
LeftToes  8.74931e-010 -1.05764e-010 1.2659e-011
855
root  80.5118 37.7565 3.00594 174.609 29.7705 171.488
RightUpLeg  -21.2852 37.4023 -23.8418
RightLeg  29.5189 19.5073 11.4062
RightFoot  -13.0698 -0.0127576 4.47618
RightToes  -4.65663e-010 0 -3.6325e-017
Spine  3.29704 -1.72023 -6.41534
Spine1  6.15568 -0.686998 -5.26114
HEad  -15.679 -10.8261 -3.17284
LeftShoulder1  -0.491748 4.7582 -33.0527
LeftArm  6.63405 3.14626 -45.8664
LeftForeArm  33.2532 -40.3566 -7.3705
LeftHand  -0.0295008 3.78476 -0.211401
RightShoulder  -1.20791 -6.82291 29.8904
RightArm  31.5898 -15.1241 42.6057
RightForeArm  9.80362 26.0557 5.07514
RightHand  -0.0273262 3.53966 -0.614117
LeftUpLeg  -11.8517 -17.5063 -11.4696
LeftLeg  24.2454 -12.1453 -5.59982
LeftFoot  -7.04143 -0.293028 8.92307
LeftToes  8.74931e-010 -1.05764e-010 1.2659e-011
856
root  81.8624 37.6331 3.32213 178.459 16.7345 173.106
RightUpLeg  -19.1804 31.6237 -21.3793
RightLeg  27.0312 19.2647 10.2374
RightFoot  -16.4469 0.159352 6.16347
RightToes  -4.65663e-010 0 -3.6325e-017
Spine  1.52998 -3.04193 -11.8076
Spine1  6.96682 -3.76264 2.5026
HEad  -17.0787 -4.13386 -6.14392
LeftShoulder1  -0.485711 4.72514 -33.4464
LeftArm  9.33368 1.19583 -46.6496
LeftForeArm  30.9742 -38.6184 -7.01125
LeftHand  -0.0399782 4.40254 1.62351
RightShoulder  -1.2817 -6.97031 30.4708
RightArm  31.1516 -15.9631 41.665
RightForeArm  9.53124 27.8483 5.50057
RightHand  0.00100971 3.79978 -0.254747
LeftUpLeg  -15.6359 -21.4041 -7.7843
LeftLeg  28.0053 -20.7339 -11.1919
LeftFoot  -7.75905 -0.228275 8.7919
LeftToes  8.74931e-010 -1.05764e-010 1.2659e-011
857
root  82.9725 37.8199 3.53798 -178.129 5.35791 175.582
RightUpLeg  -15.8655 24.9138 -16.3316
RightLeg  24.0188 12.6035 5.85949
RightFoot  -17.3003 0.193852 5.97005
RightToes  -4.65663e-010 0 -3.6325e-017
Spine  0.594624 -3.5815 -12.7146
Spine1  7.71097 -5.70174 8.92728
HEad  -19.9841 2.7558 -8.99342
LeftShoulder1  -0.202774 4.05293 -30.9454
LeftArm  10.4157 0.675549 -49.5894
LeftForeArm  34.7147 -38.9969 -6.89405
LeftHand  -0.0294363 6.55037 0.677506
RightShoulder  -1.49807 -7.4104 31.8513
RightArm  32.0654 -15.0181 40.2345
RightForeArm  7.49566 28.4305 5.74823
RightHand  0.0104096 4.5742 -0.165956
LeftUpLeg  -18.6679 -25.3975 -2.57726
LeftLeg  28.8553 -27.9479 -15.3423
LeftFoot  -7.19602 -0.237274 7.72794
LeftToes  8.74931e-010 -1.05764e-010 1.2659e-011
